<svg xmlns="http://www.w3.org/2000/svg" version="1.0" viewBox="138.7 424.34 727.33 152.61"><path fill="#FF4D6D" d="M218.5 425c-7.1 1.5-20.4 6.8-26.5 10.5-6.6 4-15 11.3-18.1 15.7-2.7 3.8-2 5.6 5.3 12.5 10.5 10.1 14.8 20.1 14.8 34.2 0 13.4-3.5 22.6-12.3 31.8-2.8 2.9-6.5 6.3-8.3 7.4-6.2 3.8-5.6 6.7 3.5 16.3 24.7 25.9 63.3 31 94.9 12.5 5.1-3.1 17.9-14.8 22.6-20.8 3.5-4.5 9.5-17.6 11.7-25.6 3.1-10.9 3.1-26.7 0-38-7-25.9-25.2-44.9-51.1-53.6-8.1-2.7-11.3-3.2-21-3.5-6.3-.2-13.3.1-15.5.6m339.9 3.8c-2.5 1.6-3.5 5.6-3.3 13l.2 7.7-3.6.3-3.7.3v4.9c0 4.8 0 4.9 3.5 5.2l3.5.3.2 32.5c.3 36.4.4 36.6 7.5 41.5 4 2.7 9.8 3.2 19.7 1.9l4.6-.7v-9.4l-7.9.5c-7.6.4-7.8.4-8.4-2-.4-1.3-.7-16.4-.7-33.4l-.1-30.9 9.6-.3 9.6-.3-.3-4.7-.3-4.7-9.4-.5-9.4-.5.2-10.8.2-10.7h-5.3c-2.9 0-5.8.4-6.4.8m47.1.3c-2.7 1.7-3.5 2.9-3.5 6.1 0 5.3 5.9 8.2 11.5 5.5 4.3-2 5.7-7 2.8-9.8-2.4-2.4-8.1-3.3-10.8-1.8m48.5.6c-6.7 3.5-9.7 11.7-8.9 24.2.4 5.4-.3 6.4-4 5.4-2.3-.6-3.5 2.4-2.9 7.3.2 2.4.8 2.9 3.5 3.2l3.2.3.3 32c.3 36.5-.1 34.7 8.9 34.7l4.9.1v-66.8l10.8-.3 10.7-.3v-10H670l-10.5-.1v-8.6c.1-11.4 1.2-12.9 9.9-12.4 3.3.2 8.2.7 10.9 1.1l4.7.7v-5c0-2.8-.4-5.3-1-5.7-.5-.3-6.7-.8-13.7-1.1-11-.4-13.3-.2-16.3 1.3m-276.4 20.9c-17.9 4.3-25.5 19-24.3 46.9 1.1 26.3 9.6 36.9 31.9 39.6 9.6 1.2 25.3.2 29.5-1.9 1-.5 3.6-1.8 5.7-2.8 5.1-2.5 11-10.4 13.2-17.9 2.5-8.5 2.6-32.4 0-41.4-3.7-13.4-11.8-21-24.8-23.1-8.8-1.4-24.2-1.1-31.2.6m31.1 11c4.2 1.5 7.7 5.3 10.2 10.9 1.9 4.3 2.6 25.4 1.2 34.5-2.3 14.5-7.3 18.9-22.6 19.8-12 .7-18.6-1-22.9-5.8-5.2-5.7-6.1-10.1-6.1-28.5 0-15.8 0-16.1 3-22 2-4 4.1-6.6 6.4-7.9 5.9-3.4 22.6-3.9 30.8-1M470 450c-5.3.4-10.9 1-12.5 1.4l-3 .7v106.4h14l.3-13.5c.1-7.4.7-13.9 1.2-14.4.7-.7 1-.6 1 .1 0 1.9 9.9 5.4 17.8 6.3 9.1 1 21.3-.3 27.1-2.9 12.3-5.5 19.1-20 19.1-41.2 0-37.1-14.6-46.7-65-42.9m31.1 10.5c5.1.6 11.5 3.7 14.2 6.8 3.7 4.3 4.9 12 4.5 27.6-.5 15.9-1.6 20.4-6.6 25.2-5.5 5.3-8.5 6.1-20.6 5.7-12.9-.4-16.2-1.7-20.4-8l-2.7-4.1-.3-26.2-.4-26.2 10.9-1c10.6-1 12.3-1 21.4.2M602 484.2c.1 38.6.7 44 5.9 49.1 3.4 3.4 9.7 4.5 19.6 3.2l5.6-.7-.3-4.6-.3-4.7-6.7.3c-5.8.3-6.8.1-7.7-1.6-.7-1.4-1.1-14.3-1.1-38.6V450h-15zm94-33.2c-1.3.8-1.6 5-1.8 25.2-.4 26.1.3 32.5 4.3 38.8 3 4.7 5.1 6.5 11 9.2 4.4 2 6.6 2.3 18.5 2.3 13.6 0 19.1-1.1 25.6-5.2 3.7-2.3 4.1-.2 2.3 10.5-1.9 10.5-7.6 15.6-19.7 17.3-8.1 1.2-24.8-.4-32.8-3.1-3.2-1-6.2-1.6-6.8-1.3-.5.3-.6.1-.2-.5.4-.7.2-1.2-.3-1.2-.6 0-1.1 1.8-1.1 3.9 0 7.2 4.2 9.4 22.6 11.7 24.2 3.1 40.1-1.5 48-13.9 5-7.7 5.4-12.1 5.4-53.3 0-43.8.5-41.4-8.6-41.4H757v23.4c0 27.2-.8 32.7-5.1 37.2-4 4.2-8.7 5.4-20.5 5.4-12.6 0-17.2-1.9-20.6-8.2-2.2-4.1-2.3-5.3-2.6-31.1l-.3-26.7h-5.2c-2.9 0-5.9.5-6.7 1m94.6.5c-2.5 2.5-2.9 7.6-2.3 30.3.6 25.1 1.6 30 7.7 36.5 5.5 6.1 11.1 7.9 25 8.3 12.3.4 18.3-.7 25.8-4.5 4.7-2.4 4.5-2.6 4.2 5.9-.5 17.2-12 23.6-37.4 20.9-8.8-1-15.4-2.6-21.9-5.4-1.6-.7-1.8-.3-1.5 4.1.3 4.1.7 5 3.3 6.6 8.7 5 37.7 7 48.9 3.4 12.3-4.1 19.5-11.5 22.2-23.3 1-4.1 1.3-15.6 1.4-42.7.1-43.1.4-41.6-8.4-41.6-3.7 0-5.6.4-5.9 1.4-.3.8-.6 13.1-.7 27.3l-.1 25.8-2.5 3.8c-4 6-9.4 7.9-22.1 7.8-11.8-.2-16-1.4-19-5.7-3.7-5.2-4.3-10-4.3-35.7V450h-5.4c-3.6 0-6 .5-7 1.5"/><path fill="#FF4D6D" d="M152.5 479.1c-6.9 2-13.8 12.3-13.8 20.5 0 14.4 16.9 24.8 30 18.4 10.3-4.9 15-17.4 10.4-27.5-4.4-9.7-15.8-14.6-26.6-11.4m16.2 2.9c2.9 1.3 5.2 3.4 7.3 6.6 8.1 12.9-.9 29.7-15.9 29.6-11.6-.1-19-7.4-19.2-19.1-.1-5.4.2-6.8 2.8-10.4 5.7-8.3 15.8-10.9 25-6.7"/></svg>